<svg id="svg" version="1.1" xmlns="http://www.w3.org/2000/svg" xmlns:xlink="http://www.w3.org/1999/xlink" width="400" height="400" viewBox="0, 0, 400,400"><g id="svgg"><path id="path0" d="M81.790 50.598 C 79.934 51.412,78.516 53.320,78.511 55.010 C 78.176 167.900,78.620 371.785,79.203 372.779 C 80.695 375.318,81.159 375.391,95.945 375.391 L 109.286 375.391 109.971 373.948 C 110.347 373.154,111.570 370.996,112.688 369.153 C 113.806 367.309,115.166 365.014,115.710 364.053 C 116.254 363.091,117.978 360.107,119.541 357.422 C 121.104 354.736,122.828 351.748,123.371 350.781 C 123.915 349.814,126.467 345.420,129.044 341.016 C 131.621 336.611,134.867 330.986,136.258 328.516 C 137.650 326.045,139.180 323.408,139.660 322.656 C 140.139 321.904,142.149 318.477,144.126 315.039 C 146.103 311.602,148.610 307.295,149.695 305.469 C 150.781 303.643,153.428 299.160,155.577 295.508 C 157.726 291.855,160.168 287.765,161.004 286.417 C 161.840 285.069,162.891 283.311,163.341 282.511 C 163.790 281.710,165.499 278.808,167.137 276.063 C 168.776 273.317,170.541 270.329,171.058 269.422 C 171.575 268.515,173.407 265.488,175.128 262.695 C 176.849 259.902,179.002 256.299,179.912 254.688 C 180.823 253.076,182.316 250.527,183.230 249.023 C 184.145 247.520,185.320 245.586,185.841 244.727 C 186.363 243.867,187.759 241.494,188.943 239.453 C 193.009 232.444,198.963 222.455,202.215 217.188 C 204.006 214.288,205.313 211.862,205.120 211.798 C 204.928 211.734,202.598 212.381,199.944 213.236 C 197.289 214.091,192.656 215.432,189.648 216.215 C 186.641 216.999,182.158 218.165,179.688 218.806 C 177.217 219.448,172.383 220.828,168.945 221.872 C 165.508 222.917,160.850 224.227,158.594 224.782 C 156.338 225.338,153.701 226.042,152.734 226.348 C 151.768 226.653,150.361 227.023,149.609 227.170 C 148.857 227.317,146.387 228.016,144.119 228.724 C 139.603 230.133,123.736 234.555,120.313 235.359 C 112.773 237.128,110.931 233.082,115.128 223.975 C 121.723 209.671,129.974 191.955,132.369 186.958 C 133.902 183.760,135.156 181.089,135.156 181.024 C 135.156 180.959,136.146 178.829,137.355 176.292 C 138.564 173.755,140.214 170.273,141.023 168.555 C 141.831 166.836,143.654 163.003,145.074 160.037 C 146.494 157.071,147.656 154.563,147.656 154.464 C 147.656 154.364,148.694 152.133,149.963 149.505 C 156.921 135.093,158.936 130.811,159.582 129.072 C 159.975 128.014,160.580 126.709,160.926 126.172 C 161.273 125.635,162.632 122.910,163.945 120.117 C 165.259 117.324,167.164 113.281,168.179 111.133 C 169.844 107.606,171.381 104.325,174.034 98.633 C 174.534 97.559,175.380 95.682,175.914 94.463 C 178.190 89.264,180.705 86.861,185.156 85.637 C 187.191 85.078,196.324 81.743,206.250 77.934 C 211.084 76.079,218.555 73.325,222.852 71.815 C 227.148 70.304,232.070 68.489,233.789 67.782 C 235.508 67.075,238.320 66.042,240.039 65.487 C 243.514 64.365,248.013 62.738,249.805 61.957 C 251.559 61.191,270.772 54.120,277.539 51.750 C 279.258 51.148,280.831 50.508,281.035 50.327 C 281.730 49.715,83.189 49.984,81.790 50.598 M296.883 61.366 C 294.846 63.601,292.285 66.396,291.191 67.578 C 290.097 68.760,288.151 70.869,286.867 72.266 C 283.131 76.328,272.390 87.789,268.929 91.406 C 267.181 93.232,264.553 96.045,263.088 97.656 C 261.623 99.268,260.223 100.762,259.978 100.977 C 259.732 101.191,256.296 104.795,252.343 108.984 C 248.389 113.174,245.051 116.689,244.924 116.797 C 244.537 117.125,232.106 130.399,227.539 135.361 C 225.176 137.929,221.924 141.443,220.313 143.171 C 218.701 144.899,214.219 149.727,210.352 153.902 C 206.484 158.076,200.084 164.926,196.128 169.124 C 192.173 173.323,186.568 179.395,183.672 182.617 C 180.776 185.840,178.212 188.657,177.973 188.878 C 177.734 189.099,177.132 189.738,176.635 190.298 L 175.730 191.316 177.807 190.814 C 180.506 190.163,183.394 189.339,187.500 188.051 C 189.326 187.478,192.754 186.430,195.117 185.722 C 197.480 185.014,201.523 183.800,204.102 183.024 C 206.680 182.247,210.020 181.248,211.523 180.802 C 213.027 180.357,215.488 179.583,216.992 179.081 C 219.436 178.266,228.541 175.428,233.203 174.027 C 234.170 173.737,237.949 172.534,241.602 171.355 C 263.147 164.399,270.179 162.697,272.270 163.932 C 276.879 166.655,272.745 176.695,260.448 192.638 C 256.502 197.755,245.929 211.280,245.287 212.032 C 244.670 212.756,239.151 219.739,234.570 225.593 C 232.422 228.338,229.975 231.394,229.134 232.382 C 228.292 233.371,226.144 236.113,224.360 238.477 C 222.576 240.840,220.063 244.092,218.777 245.703 C 217.491 247.314,215.164 250.303,213.605 252.344 C 212.047 254.385,209.974 257.041,208.999 258.246 C 208.024 259.451,206.875 260.928,206.445 261.528 C 206.016 262.128,203.297 265.624,200.404 269.298 C 197.511 272.971,193.338 278.350,191.130 281.250 C 188.922 284.150,186.819 286.831,186.457 287.208 C 186.096 287.584,184.159 290.045,182.153 292.676 C 178.477 297.499,174.052 303.259,169.323 309.375 C 165.551 314.252,158.879 323.008,158.203 323.967 C 157.592 324.835,154.632 328.749,148.894 336.280 C 147.032 338.723,145.156 341.217,144.727 341.820 C 144.297 342.424,143.366 343.676,142.657 344.603 C 139.515 348.714,129.038 362.888,125.386 367.969 C 124.227 369.580,122.612 371.714,121.796 372.710 C 120.980 373.707,120.313 374.686,120.313 374.887 C 120.312 375.356,293.302 375.504,295.648 375.038 C 297.792 374.611,299.223 373.576,300.098 371.818 C 300.747 370.516,300.777 362.362,300.684 213.874 L 300.586 57.303 296.883 61.366 M375.000 396.875 L 375.000 400.000 378.125 400.000 L 381.250 400.000 381.250 396.875 L 381.250 393.750 378.125 393.750 L 375.000 393.750 375.000 396.875 M393.750 396.875 L 393.750 400.000 396.875 400.000 L 400.000 400.000 400.000 396.875 L 400.000 393.750 396.875 393.750 L 393.750 393.750 393.750 396.875 " stroke="none" fill="#04f5f0" fill-rule="evenodd"></path><path id="path1" d="M299.023 44.827 C 295.530 45.394,285.267 48.599,281.055 50.438 C 280.343 50.749,277.439 51.805,263.477 56.830 C 257.391 59.020,250.405 61.645,249.414 62.113 C 248.250 62.663,243.583 64.343,240.039 65.487 C 238.320 66.042,235.508 67.075,233.789 67.782 C 232.070 68.489,227.148 70.304,222.852 71.815 C 218.555 73.325,211.084 76.079,206.250 77.934 C 196.324 81.743,187.191 85.078,185.156 85.637 C 180.705 86.861,178.190 89.264,175.914 94.463 C 175.380 95.682,174.534 97.559,174.034 98.633 C 171.381 104.325,169.844 107.606,168.179 111.133 C 167.164 113.281,165.259 117.324,163.945 120.117 C 162.632 122.910,161.273 125.635,160.926 126.172 C 160.580 126.709,159.975 128.014,159.582 129.072 C 158.936 130.811,156.921 135.093,149.963 149.505 C 148.694 152.133,147.656 154.364,147.656 154.464 C 147.656 154.563,146.494 157.071,145.074 160.037 C 143.654 163.003,141.831 166.836,141.023 168.555 C 140.214 170.273,138.564 173.755,137.355 176.292 C 136.146 178.829,135.156 180.959,135.156 181.024 C 135.156 181.089,133.902 183.760,132.369 186.958 C 129.974 191.955,121.723 209.671,115.128 223.975 C 110.931 233.082,112.773 237.128,120.313 235.359 C 123.736 234.555,139.603 230.133,144.119 228.724 C 146.387 228.016,148.857 227.317,149.609 227.170 C 150.361 227.023,151.768 226.653,152.734 226.348 C 153.701 226.042,156.338 225.338,158.594 224.782 C 160.850 224.227,165.508 222.917,168.945 221.872 C 172.383 220.828,177.217 219.448,179.688 218.806 C 182.158 218.165,186.641 216.999,189.648 216.215 C 192.656 215.432,197.289 214.091,199.944 213.236 C 202.598 212.381,204.928 211.734,205.120 211.798 C 205.313 211.862,204.006 214.288,202.215 217.188 C 198.963 222.455,193.009 232.444,188.943 239.453 C 187.759 241.494,186.363 243.867,185.841 244.727 C 185.320 245.586,184.145 247.520,183.230 249.023 C 182.316 250.527,180.823 253.076,179.912 254.688 C 179.002 256.299,176.849 259.902,175.128 262.695 C 173.407 265.488,171.575 268.515,171.058 269.422 C 170.541 270.329,168.776 273.317,167.137 276.063 C 165.499 278.808,163.790 281.710,163.341 282.511 C 162.891 283.311,161.840 285.069,161.004 286.417 C 160.168 287.765,157.726 291.855,155.577 295.508 C 153.428 299.160,150.781 303.643,149.695 305.469 C 148.610 307.295,146.103 311.602,144.126 315.039 C 142.149 318.477,140.139 321.904,139.660 322.656 C 139.180 323.408,137.650 326.045,136.258 328.516 C 134.867 330.986,131.621 336.611,129.044 341.016 C 126.467 345.420,123.915 349.814,123.371 350.781 C 122.828 351.748,121.104 354.736,119.541 357.422 C 117.978 360.107,116.252 363.096,115.706 364.063 C 115.160 365.029,114.014 366.963,113.159 368.359 C 111.227 371.517,108.908 375.771,104.117 384.948 C 101.249 390.441,101.320 390.793,105.382 391.273 L 107.227 391.492 109.869 388.334 C 111.323 386.597,113.340 383.985,114.352 382.530 C 116.808 378.996,118.514 376.719,120.245 374.664 C 121.643 373.004,123.699 370.260,129.688 362.061 C 132.939 357.609,140.656 347.221,142.657 344.603 C 143.366 343.676,144.297 342.424,144.727 341.820 C 145.156 341.217,147.032 338.723,148.894 336.280 C 154.632 328.749,157.592 324.835,158.203 323.967 C 158.879 323.008,165.551 314.252,169.323 309.375 C 174.052 303.259,178.477 297.499,182.153 292.676 C 184.159 290.045,186.096 287.584,186.457 287.208 C 186.819 286.831,188.922 284.150,191.130 281.250 C 193.338 278.350,197.511 272.971,200.404 269.298 C 203.297 265.624,206.016 262.128,206.445 261.528 C 206.875 260.928,208.024 259.451,208.999 258.246 C 209.974 257.041,212.047 254.385,213.605 252.344 C 215.164 250.303,217.491 247.314,218.777 245.703 C 220.063 244.092,222.576 240.840,224.360 238.477 C 226.144 236.113,228.292 233.371,229.134 232.382 C 229.975 231.394,232.422 228.338,234.570 225.593 C 239.151 219.739,244.670 212.756,245.287 212.032 C 245.929 211.280,256.502 197.755,260.448 192.638 C 272.745 176.695,276.879 166.655,272.270 163.932 C 270.179 162.697,263.147 164.399,241.602 171.355 C 237.949 172.534,234.170 173.737,233.203 174.027 C 228.541 175.428,219.436 178.266,216.992 179.081 C 215.488 179.583,213.027 180.357,211.523 180.802 C 210.020 181.248,206.680 182.247,204.102 183.024 C 201.523 183.800,197.480 185.014,195.117 185.722 C 192.754 186.430,189.326 187.478,187.500 188.051 C 183.394 189.339,180.506 190.163,177.807 190.814 L 175.730 191.316 176.635 190.298 C 177.132 189.738,177.734 189.099,177.973 188.878 C 178.212 188.657,180.776 185.840,183.672 182.617 C 186.568 179.395,192.173 173.323,196.128 169.124 C 200.084 164.926,206.484 158.076,210.352 153.902 C 214.219 149.727,218.701 144.899,220.313 143.171 C 221.924 141.443,225.176 137.929,227.539 135.361 C 232.106 130.399,244.537 117.125,244.924 116.797 C 245.051 116.689,248.389 113.174,252.343 108.984 C 256.296 104.795,259.732 101.191,259.978 100.977 C 260.223 100.762,261.623 99.268,263.088 97.656 C 264.553 96.045,267.181 93.232,268.929 91.406 C 272.322 87.860,283.002 76.466,286.870 72.266 C 288.155 70.869,290.021 68.848,291.015 67.773 C 297.693 60.559,302.096 55.405,304.002 52.571 C 306.834 48.361,304.039 44.013,299.023 44.827 " stroke="none" fill="#040505" fill-rule="evenodd"></path><path id="path2" d="M0.000 200.000 L 0.000 400.000 187.500 400.000 L 375.000 400.000 375.000 396.875 L 375.000 393.750 387.500 393.750 L 400.000 393.750 400.000 196.875 L 400.000 0.000 200.000 0.000 L 0.000 0.000 0.000 200.000 M303.470 45.168 C 306.364 47.195,305.816 51.464,302.148 55.469 L 301.253 56.445 301.046 213.672 C 300.914 313.417,300.700 371.255,300.460 371.875 C 300.047 372.944,298.730 374.260,297.374 374.959 C 296.730 375.291,273.726 375.411,208.116 375.422 L 119.727 375.438 116.211 380.383 C 114.277 383.102,111.465 386.780,109.961 388.554 L 107.227 391.781 105.273 391.549 C 102.242 391.188,100.687 389.759,101.911 388.457 C 102.103 388.253,103.449 385.801,104.902 383.008 C 106.355 380.215,107.778 377.490,108.064 376.953 L 108.584 375.977 95.210 375.781 L 81.836 375.586 80.581 374.645 C 79.891 374.127,79.056 373.132,78.724 372.434 C 78.184 371.296,78.132 354.735,78.221 212.176 L 78.320 53.188 79.297 52.142 C 81.896 49.358,71.624 49.609,182.712 49.609 L 282.253 49.609 286.732 48.006 C 295.768 44.770,301.512 43.797,303.470 45.168 " stroke="none" fill="#fbfbfb" fill-rule="evenodd"></path><path id="path3" d="M82.031 50.236 C 81.494 50.566,81.406 50.691,81.836 50.515 C 82.266 50.339,127.529 50.107,182.422 49.998 L 282.227 49.802 182.617 49.719 C 93.695 49.646,82.903 49.701,82.031 50.236 M79.496 51.949 C 78.881 52.591,78.452 53.179,78.544 53.255 C 78.636 53.332,79.212 52.806,79.824 52.088 C 81.205 50.465,81.001 50.379,79.496 51.949 M78.216 55.078 C 78.216 55.830,78.296 56.138,78.394 55.762 C 78.493 55.386,78.493 54.771,78.394 54.395 C 78.296 54.019,78.216 54.326,78.216 55.078 M300.973 150.781 C 300.973 202.666,301.019 223.892,301.074 197.949 C 301.130 172.007,301.130 129.556,301.074 103.613 C 301.019 77.671,300.973 98.896,300.973 150.781 M78.318 215.430 C 78.318 301.367,78.363 336.465,78.418 293.425 C 78.473 250.385,78.473 180.073,78.418 137.175 C 78.363 94.278,78.318 129.492,78.318 215.430 M300.951 255.859 C 300.951 261.338,301.006 263.579,301.073 260.840 C 301.140 258.101,301.140 253.618,301.073 250.879 C 301.006 248.140,300.951 250.381,300.951 255.859 M300.902 345.898 C 300.904 347.188,300.977 347.668,301.064 346.966 C 301.151 346.264,301.149 345.209,301.060 344.622 C 300.971 344.035,300.900 344.609,300.902 345.898 M300.906 353.125 C 300.906 354.521,300.977 355.093,301.064 354.395 C 301.150 353.696,301.150 352.554,301.064 351.855 C 300.977 351.157,300.906 351.729,300.906 353.125 M299.696 372.662 C 299.024 373.739,297.425 374.699,295.767 375.022 C 294.527 375.264,294.482 375.307,295.430 375.346 C 297.098 375.414,301.051 372.796,300.345 372.090 C 300.246 371.991,299.954 372.249,299.696 372.662 M80.971 374.826 C 81.635 375.550,82.310 375.587,95.424 375.605 L 109.180 375.625 95.470 375.410 C 84.364 375.236,81.618 375.088,81.016 374.631 C 80.299 374.085,80.297 374.092,80.971 374.826 M136.230 375.290 C 137.788 375.364,140.337 375.364,141.895 375.290 C 143.452 375.216,142.178 375.155,139.063 375.155 C 135.947 375.155,134.673 375.216,136.230 375.290 M148.344 375.276 C 148.830 375.370,149.533 375.366,149.907 375.268 C 150.280 375.171,149.883 375.094,149.023 375.099 C 148.164 375.103,147.858 375.183,148.344 375.276 M224.516 375.276 C 225.002 375.370,225.705 375.366,226.079 375.268 C 226.452 375.171,226.055 375.094,225.195 375.099 C 224.336 375.103,224.030 375.183,224.516 375.276 M188.965 375.666 C 189.448 375.759,190.239 375.759,190.723 375.666 C 191.206 375.573,190.811 375.497,189.844 375.497 C 188.877 375.497,188.481 375.573,188.965 375.666 M193.262 375.677 C 194.175 375.759,195.669 375.759,196.582 375.677 C 197.495 375.594,196.748 375.527,194.922 375.527 C 193.096 375.527,192.349 375.594,193.262 375.677 " stroke="none" fill="#9ef6f4" fill-rule="evenodd"></path><path id="path4" d="M300.488 44.801 C 300.864 44.899,301.479 44.899,301.855 44.801 C 302.231 44.702,301.924 44.622,301.172 44.622 C 300.420 44.622,300.112 44.702,300.488 44.801 M381.250 396.875 L 381.250 400.000 387.500 400.000 L 393.750 400.000 393.750 396.875 L 393.750 393.750 387.500 393.750 L 381.250 393.750 381.250 396.875 " stroke="none" fill="#f76c3e" fill-rule="evenodd"></path></g></svg>